# xmcd
#
# Track frame offsets:
#	150
#	30890
#	52535
#	71540
#	90167
#	117902
#	141665
#	160745
#	191547
#	222400
#
# Disc length: 3206 seconds
#
# Revision: 7
# Processed by: cddbd v1.5.2PL0 Copyright (c) Steve Scherf et al.
# Submitted via: EasyCDDAExtractor 12.0.1.1
#
DISCID=7c0c840a
DTITLE=齐秦 - 紀念日
DYEAR=1989
DGENRE=Pop
TTITLE0=纪念日
TTITLE1=你是天上最远的那颗星星
TTITLE2=遥远的天空底下
TTITLE3=荒
TTITLE4=虹
TTITLE5=给未来的孩子
TTITLE6=思念是一种病
TTITLE7=飞行鱼
TTITLE8=自己的心情自己感受
TTITLE9=战鼓
EXTD=YEAR: 1990 ID3G: 13
EXTT0=
EXTT1=
EXTT2=
EXTT3=
EXTT4=
EXTT5=
EXTT6=
EXTT7=
EXTT8=
EXTT9=
PLAYORDER=
